<svg width="175" height="28" viewBox="0 0 175 28" fill="none" xmlns="http://www.w3.org/2000/svg">
<g clip-path="url(#clip0)">
<path d="M0 5.29927V9.46293H0.812842C0.812842 8.84784 0.90847 8.23276 1.19536 7.66498C1.38661 7.28647 1.6735 6.95527 2.05601 6.7187C2.43852 6.48213 2.86885 6.3875 3.29918 6.34018C3.77732 6.29287 4.30328 6.29287 4.87705 6.29287C5.25956 6.29287 5.59426 6.29287 5.97678 6.34018C6.21585 6.34018 6.4071 6.3875 6.64618 6.48213C6.78962 6.52944 6.88525 6.57675 6.93306 6.67138C6.98088 6.76601 7.02869 6.86064 6.98088 7.00258V18.5946C6.98088 18.9731 6.93306 19.3989 6.88525 19.7775C6.83743 20.0613 6.69399 20.3452 6.50273 20.5818C6.26366 20.8184 5.97678 20.9603 5.64208 21.0549C5.16393 21.1969 4.63798 21.2442 4.15984 21.2442V22.0959H12.4795V21.2915C11.9536 21.2915 11.4754 21.2442 10.9973 21.1023C10.6626 21.0076 10.3757 20.8657 10.1366 20.6291C9.94536 20.3925 9.80191 20.1087 9.7541 19.8248C9.70628 19.4463 9.65847 19.0204 9.65847 18.6419V6.86064C9.65847 6.76601 9.65847 6.62407 9.7541 6.52944C9.84973 6.43481 9.94536 6.34018 10.0888 6.34018C10.3279 6.29287 10.5669 6.24555 10.8538 6.24555C11.1885 6.24555 11.6189 6.19824 12.1448 6.19824C12.6708 6.19824 13.2445 6.24555 13.7705 6.34018C14.153 6.43481 14.5355 6.62407 14.8702 6.86064C15.2049 7.14453 15.444 7.47573 15.5874 7.85424C15.7787 8.3747 15.8743 8.89516 15.8743 9.41561H16.7828L16.5437 5.25195L0 5.29927Z" fill="#324D5C"/>
<path d="M31.3192 20.7712C31.1758 20.5346 31.0801 20.2507 31.0801 19.9669C31.0801 19.6357 31.0323 19.1625 31.0323 18.5474V15.0935C31.0323 14.3365 30.9845 13.6267 30.8411 12.917C30.7454 12.4439 30.5542 12.018 30.2673 11.5922C29.9326 11.1664 29.4544 10.8352 28.9763 10.6459C28.4025 10.4094 27.781 10.2674 27.1116 10.2674C26.6812 10.2674 26.2987 10.3147 25.8684 10.4094C25.4381 10.504 25.0555 10.6459 24.673 10.8352C24.2905 11.0244 23.9558 11.2137 23.6211 11.4503C23.2864 11.6868 23.0473 11.9234 22.8083 12.2546H22.7126V3.97461L18.6484 4.77895V5.48867C18.9353 5.48867 19.1744 5.48867 19.4613 5.53598C19.6525 5.53598 19.8438 5.5833 19.9872 5.67793C20.1307 5.72524 20.2263 5.81987 20.2741 5.96181C20.3697 6.10376 20.4176 6.2457 20.4176 6.38764C20.5132 6.76616 20.5132 7.14467 20.5132 7.5705C20.5132 8.09096 20.561 8.75336 20.561 9.60502V18.6894C20.561 19.1152 20.561 19.541 20.5132 20.0142C20.5132 20.2981 20.4176 20.5346 20.2741 20.7712C20.1307 20.9605 19.9394 21.0551 19.7004 21.1024C19.3657 21.1497 19.031 21.197 18.6963 21.2443V22.0014H24.5296V21.2443C24.1949 21.2443 23.8602 21.197 23.5255 21.1497C23.2864 21.1024 23.0952 20.9605 22.9517 20.7712C22.8083 20.5346 22.7126 20.2507 22.7126 19.9669C22.7126 19.5883 22.6648 19.1625 22.6648 18.5474V14.9042C22.6648 14.715 22.6648 14.5257 22.7126 14.3365C22.7126 14.1945 22.7605 14.0053 22.8561 13.8633C22.9039 13.7214 22.9517 13.5794 23.0473 13.4375C23.3342 12.8697 23.8124 12.3492 24.3861 12.018C24.9599 11.6868 25.5815 11.4976 26.2509 11.4976C27.0159 11.4503 27.781 11.8288 28.1635 12.5385C28.546 13.2482 28.7372 14.3838 28.7372 15.9925V18.7367C28.7372 19.1625 28.7372 19.5883 28.6894 20.0615C28.6894 20.3454 28.5938 20.5819 28.4503 20.8185C28.3069 21.0078 28.1157 21.1024 27.8766 21.197C27.5419 21.2443 27.2072 21.2917 26.8725 21.2917V22.0487H32.7058V21.2917C32.3711 21.2917 32.0364 21.2443 31.7017 21.197C31.6061 21.1024 31.4148 20.9605 31.3192 20.7712Z" fill="#324D5C"/>
<path d="M40.4504 10.2674C39.6375 10.2674 38.7769 10.4094 38.0118 10.7406C37.2946 11.0244 36.6252 11.4503 36.0993 11.9707C35.5733 12.5385 35.143 13.2009 34.8561 13.9106C34.5692 14.715 34.4258 15.5193 34.4258 16.371C34.4258 17.1753 34.5692 17.9796 34.8561 18.7367C35.0952 19.4464 35.5255 20.0615 36.0037 20.5819C36.5296 21.1024 37.1512 21.4809 37.8206 21.7648C38.5856 22.0487 39.3506 22.1906 40.1635 22.1906C41.9804 22.1906 43.7017 21.3863 44.8015 19.9668L44.1321 19.3518C43.6539 19.8722 43.128 20.298 42.5064 20.6766C41.9804 20.9604 41.4067 21.1024 40.7851 21.0551C40.2591 21.0551 39.6853 20.9604 39.2072 20.7239C38.7291 20.4873 38.2987 20.1561 37.964 19.7303C37.5815 19.2571 37.3424 18.7367 37.1512 18.1689C36.9599 17.5065 36.8643 16.7968 36.8643 16.1344V15.5666C36.8643 15.4247 36.9121 15.2827 36.9121 15.1408H44.1321C44.3233 15.1408 44.5146 15.1408 44.7058 15.0935C44.8015 15.0462 44.8015 14.9042 44.8015 14.715C45.0405 12.5385 43.4627 10.5513 41.2632 10.3147C40.9763 10.2201 40.6894 10.2201 40.4504 10.2674ZM42.4586 13.816C42.4108 13.9106 42.3629 13.9579 42.2673 14.0052C42.1239 14.0526 42.0282 14.0999 41.8848 14.0999H37.1512C37.5337 12.2073 38.5378 11.3083 40.1157 11.3083C40.7373 11.261 41.4067 11.4976 41.8848 11.9234C42.3151 12.3492 42.5542 12.917 42.5542 13.5321C42.5064 13.5794 42.5064 13.7214 42.4586 13.816Z" fill="#324D5C"/>
<path d="M67.7541 7.7123C66.8935 6.95527 65.9372 6.34018 64.8375 5.91435C63.6899 5.48852 62.4467 5.25195 61.1558 5.25195H53.4577V6.10361C53.8402 6.10361 54.2227 6.15093 54.5574 6.24555C54.7965 6.29287 55.0355 6.43481 55.2268 6.62407C55.4181 6.86064 55.5137 7.09721 55.5615 7.3811C55.6093 7.80693 55.6571 8.18544 55.6571 8.61127V18.7365C55.6571 19.1624 55.6093 19.5882 55.5615 19.9667C55.5137 20.2506 55.3702 20.4872 55.179 20.7237C54.9399 20.913 54.653 21.0549 54.3661 21.1023C53.9358 21.1969 53.4577 21.1969 53.0273 21.1969V22.0485H61.6339C62.8293 22.0485 64.0246 21.8593 65.1722 21.4335C66.1763 21.0549 67.1325 20.4872 67.9454 19.7775C68.7104 19.0677 69.332 18.1688 69.7145 17.2225C70.1448 16.1816 70.3839 15.046 70.3361 13.9105C70.3361 12.7276 70.097 11.5448 69.6667 10.4565C69.2364 9.41562 68.567 8.46933 67.7541 7.7123ZM65.8894 19.1624C64.8375 20.3452 63.2596 20.9603 61.2992 20.9603C59.0997 20.9603 58.0478 20.1087 58.0478 18.5V6.7187C58 6.52944 58.1435 6.3875 58.3347 6.34018H61.2036C62.112 6.34018 63.0205 6.48213 63.8334 6.86064C64.5984 7.19184 65.2678 7.7123 65.8416 8.3747C66.4153 9.08441 66.8457 9.88876 67.0847 10.7404C67.3716 11.7813 67.5629 12.8696 67.5151 13.9578C67.4672 16.2289 66.9413 17.9795 65.8894 19.1624Z" fill="#324D5C"/>
<path d="M82.8604 20.9122C82.6691 20.9595 82.4779 21.0068 82.2866 21.0068C81.6172 21.0068 81.2825 20.2024 81.2825 18.5464V13.6731C81.2825 12.4429 80.9956 11.5912 80.374 11.0708C79.7525 10.5503 78.7484 10.3137 77.2661 10.3137C76.1664 10.2664 75.0667 10.4557 74.0626 10.8815C73.3932 11.1654 72.9628 11.7805 72.9628 12.4902C72.8672 13.0107 73.2019 13.4838 73.7279 13.5784H73.7757H73.8235C73.9191 13.5784 74.0147 13.5784 74.1104 13.5784C74.3494 13.5784 74.5885 13.5311 74.7798 13.3892C75.0188 13.1526 75.1623 12.8687 75.2579 12.5375C75.3057 12.3009 75.4014 12.0644 75.5448 11.8278C75.6404 11.6385 75.7361 11.4966 75.8795 11.402C76.0229 11.3073 76.1664 11.2127 76.3098 11.1654C76.5011 11.1181 76.7402 11.0708 76.9314 11.1181C78.4615 11.1181 79.2265 12.0171 79.2265 13.7677V14.6667L76.0708 16.0388C75.497 16.2753 74.9232 16.5592 74.3973 16.8904C74.0147 17.127 73.6322 17.4109 73.2975 17.7421C72.8194 18.2625 72.5325 18.9249 72.5325 19.6347C72.4847 20.3444 72.7716 21.0541 73.2975 21.5272C73.9191 22.0004 74.6841 22.2843 75.497 22.237C76.262 22.237 77.027 22.0004 77.6964 21.6219C78.3658 21.196 78.8918 20.6283 79.2743 19.9185H79.3699C79.3221 20.5336 79.5134 21.1487 79.8481 21.6219C80.1828 22.0477 80.7566 22.2843 81.2825 22.237C81.8085 22.237 82.2866 22.1423 82.7648 21.9058C83.1473 21.7165 83.482 21.4326 83.721 21.0541L83.4342 20.5336C83.2429 20.7229 83.0995 20.8648 82.8604 20.9122ZM79.1309 17.3163C79.1309 17.7894 79.0831 18.2625 78.8918 18.7357C78.7484 19.1615 78.5571 19.54 78.318 19.9185C78.079 20.2024 77.7921 20.4863 77.4096 20.6283C77.0749 20.8175 76.7402 20.9122 76.3576 20.9122C75.8795 20.9122 75.4492 20.7702 75.0667 20.439C74.732 20.1078 74.5885 19.682 74.5885 19.2561C74.5885 18.9249 74.6841 18.5937 74.8276 18.3099C75.0188 17.9787 75.2579 17.6475 75.5926 17.4109C76.0229 17.0324 76.5011 16.7485 76.9792 16.5119C77.6486 16.1334 78.3658 15.8495 79.0831 15.5656L79.1309 17.3163Z" fill="#324D5C"/>
<path d="M89.0295 20.724C88.8861 20.4875 88.7905 20.2036 88.7427 19.9197C88.6949 19.4466 88.647 19.0207 88.647 18.5476V10.2676L84.3438 11.1192V11.9236C84.8697 11.8763 85.3479 11.9709 85.826 12.1128C86.1129 12.2548 86.3041 12.4914 86.352 12.8226C86.4476 13.2011 86.4476 13.5323 86.4954 13.9108C86.4954 14.4786 86.5432 15.141 86.5432 15.9926V18.7842C86.5432 19.21 86.4954 19.6358 86.4476 20.0616C86.3998 20.3455 86.3041 20.5821 86.1607 20.8187C85.9694 21.0079 85.7782 21.1499 85.4913 21.1972C85.1566 21.2918 84.7741 21.3391 84.4394 21.3391V22.0962H90.7509V21.3391C90.4162 21.3391 90.0337 21.2918 89.699 21.1972C89.4121 21.0552 89.173 20.9133 89.0295 20.724Z" fill="#324D5C"/>
<path d="M87.499 7.19257C88.2162 7.19257 88.8377 6.57749 88.8377 5.86777C88.8377 5.15806 88.2162 4.54297 87.499 4.54297C86.7817 4.54297 86.1602 5.15806 86.1602 5.86777C86.1602 6.19897 86.3036 6.53017 86.5427 6.81406C86.7817 7.05063 87.1643 7.19257 87.499 7.19257Z" fill="#324D5C"/>
<path d="M96.057 20.7239C95.9136 20.4873 95.818 20.2034 95.7701 19.9195C95.7223 19.4937 95.6745 19.0206 95.7223 18.5947V3.97461L91.5625 4.73164V5.48867C92.0406 5.44135 92.5666 5.53598 93.0447 5.67793C93.3316 5.81987 93.5229 6.05644 93.5707 6.34033C93.6185 6.71884 93.6663 7.05004 93.7141 7.42856C93.7141 7.99633 93.762 8.61141 93.762 9.36844V18.784C93.762 19.2098 93.7619 19.5883 93.6663 20.0142C93.6185 20.2981 93.5229 20.5346 93.3794 20.7239C93.1882 20.9131 92.9969 21.0551 92.7579 21.1024C92.4232 21.197 92.0406 21.2443 91.7059 21.2443V22.0014H97.7783V21.2917C97.4436 21.2917 97.1089 21.2443 96.7742 21.1497C96.4395 21.0551 96.2005 20.9131 96.057 20.7239Z" fill="#324D5C"/>
<path d="M107.103 11.2609C107.534 11.2136 107.964 11.2609 108.347 11.4502C108.586 11.6395 108.681 11.9233 108.681 12.2072C108.681 12.3492 108.681 12.4438 108.633 12.5857C108.586 12.7277 108.538 12.9169 108.49 13.0589C108.442 13.2481 108.347 13.4847 108.203 13.8159C108.108 14.1471 107.916 14.5256 107.725 14.9988L105.717 19.8721H105.621L103.23 14.0998C103.039 13.674 102.896 13.2955 102.8 12.8696C102.705 12.5857 102.657 12.3019 102.609 11.9707C102.609 11.4975 103.087 11.2609 104.091 11.2609V10.5039H98.2578V11.2609C98.4969 11.2609 98.736 11.3083 98.975 11.4029C99.1663 11.4502 99.3575 11.5448 99.501 11.6868C99.6922 11.8287 99.8357 12.018 99.9313 12.2545C100.123 12.5384 100.266 12.8696 100.409 13.2008L104.617 22.2852L103.852 23.7992C103.756 24.0358 103.613 24.2724 103.47 24.509C103.326 24.6982 103.183 24.8402 102.991 24.9821C102.8 25.124 102.609 25.2187 102.418 25.266C102.179 25.3606 101.892 25.4079 101.653 25.4552C101.174 25.5026 100.649 25.6445 100.218 25.8811C99.9313 26.0703 99.7879 26.3542 99.8357 26.6854C99.8357 27.3478 100.314 27.7263 101.222 27.7263C102.657 27.7263 103.709 26.9693 104.378 25.5026L109.159 14.9515C109.494 14.1471 109.829 13.4847 110.068 13.0116C110.259 12.6331 110.498 12.2545 110.737 11.9233C110.881 11.7341 111.072 11.5448 111.311 11.4502C111.55 11.3556 111.789 11.3556 112.028 11.3556V10.5985H107.247L107.103 11.2609Z" fill="#324D5C"/>
<path d="M134.456 12.7278C133.595 11.6869 132.639 10.7406 131.682 9.84166C131.109 9.3212 130.535 8.75343 130.057 8.13834C129.674 7.6652 129.339 7.19206 129.1 6.6716C128.909 6.24577 128.766 5.81994 128.766 5.3468C128.766 4.87365 128.813 4.44782 128.957 3.97468C129.244 3.07571 129.913 2.31868 130.774 1.94016C131.73 1.56165 132.782 1.56165 133.738 1.94016C134.886 2.27136 135.794 3.07571 136.32 4.11662C136.942 5.44142 137.181 6.90817 137.037 8.3276L138.042 8.6588L139.715 2.69719L139.093 2.50794L137.946 3.59617C137.516 2.83914 136.942 2.17674 136.272 1.60896C135.651 1.0885 134.934 0.70999 134.169 0.473418C133.308 0.189532 132.447 0.0475892 131.539 0.0949036C130.726 0.142218 129.865 0.37879 129.148 0.757305C128.431 1.13582 127.762 1.70359 127.236 2.31868C126.662 3.02839 126.231 3.83274 125.945 4.6844C125.706 5.39411 125.562 6.10383 125.562 6.81354C125.562 7.52326 125.706 8.18566 125.992 8.80075C126.327 9.55777 126.757 10.2675 127.331 10.9299C128.048 11.7815 128.813 12.6332 129.674 13.3902C130.343 14.0053 131.013 14.6677 131.587 15.3774C132.017 15.8506 132.399 16.4184 132.686 16.9861C132.925 17.4593 133.021 17.9324 133.069 18.4529C133.069 18.926 133.021 19.3992 132.83 19.8723C132.543 20.9605 131.778 21.8595 130.726 22.3326C129.578 22.7585 128.335 22.7585 127.188 22.3326C126.423 22.0961 125.658 21.6702 125.036 21.1971C124.415 20.724 123.936 20.1089 123.554 19.4465C123.171 18.7368 122.932 17.9797 122.837 17.2227C122.693 16.371 122.741 15.4721 122.884 14.6204L121.88 14.3365L120.016 20.9132L120.637 21.1025L121.88 19.9196C122.406 20.8186 123.076 21.6702 123.889 22.3326C124.654 22.9477 125.562 23.4209 126.518 23.7048C127.522 24.036 128.622 24.1779 129.674 24.1779C130.63 24.1779 131.587 23.9413 132.495 23.5628C133.356 23.1843 134.121 22.6165 134.695 21.9068C135.364 21.1498 135.842 20.2981 136.129 19.3992C136.368 18.6894 136.512 17.9324 136.512 17.1754C136.464 16.4184 136.272 15.7086 135.938 15.0462C135.603 14.2419 135.077 13.4376 134.456 12.7278Z" fill="#324D5C"/>
<path d="M149.466 11.0719C149.848 11.0246 150.279 11.0719 150.661 11.2139C150.852 11.3558 150.996 11.5924 150.948 11.829C150.948 11.9709 150.948 12.1128 150.9 12.2548C150.852 12.444 150.805 12.6333 150.757 12.8226C150.709 13.0118 150.613 13.2957 150.47 13.6742C150.326 14.0527 150.231 14.3839 150.04 14.8571L148.701 18.3583H148.605L145.689 10.2676H145.019L141.768 18.311H141.672L140.19 13.1064L140.046 12.444C139.999 12.2548 139.999 12.1128 139.999 11.9236C139.951 11.6397 140.094 11.4031 140.333 11.2612C140.716 11.1192 141.146 11.0246 141.529 11.0719V10.3149H135.695V11.0719C135.982 11.0719 136.221 11.0719 136.508 11.1666C136.699 11.2139 136.891 11.3085 137.082 11.4504C137.273 11.6397 137.417 11.829 137.512 12.0182C137.656 12.3494 137.799 12.6806 137.895 13.0118L140.764 22.0488H141.576L144.828 14.0527H144.876L147.553 22.0488H148.414L151.809 13.7688C152.048 13.2011 152.239 12.7279 152.383 12.3967C152.526 12.1128 152.669 11.829 152.861 11.5924C153.004 11.4031 153.148 11.3085 153.339 11.2139C153.53 11.1666 153.721 11.1192 153.913 11.1192V10.3149H149.514L149.466 11.0719Z" fill="#324D5C"/>
<path d="M159.557 20.724C159.366 20.4875 159.27 20.2036 159.27 19.9197C159.222 19.4466 159.174 19.0207 159.174 18.5476V10.2676L154.871 11.1192V11.9236C155.397 11.8763 155.875 11.9709 156.353 12.1128C156.592 12.2548 156.784 12.4914 156.831 12.8226C156.927 13.2011 156.927 13.5323 156.975 13.9108C156.975 14.4786 157.023 15.141 157.023 15.9926V18.7842C157.023 19.21 156.975 19.6358 156.927 20.0616C156.879 20.3455 156.784 20.5821 156.64 20.8187C156.449 21.0079 156.258 21.1499 156.019 21.1972C155.684 21.2918 155.301 21.3391 154.967 21.3391V22.0962H161.278V21.3391C160.943 21.3391 160.561 21.2918 160.226 21.1972C159.939 21.0552 159.7 20.9133 159.557 20.724Z" fill="#324D5C"/>
<path d="M158.027 7.19257C158.792 7.19257 159.365 6.57749 159.365 5.86777C159.365 5.15806 158.744 4.54297 158.027 4.54297C157.644 4.54297 157.309 4.68491 157.07 4.92148C156.544 5.44194 156.544 6.2936 157.07 6.81406C157.309 7.05063 157.644 7.19257 158.027 7.19257Z" fill="#324D5C"/>
<path d="M174.57 10.6461C174.187 10.4095 173.757 10.2676 173.326 10.2676C172.944 10.2676 172.561 10.3622 172.274 10.5515C171.796 10.788 171.366 11.0719 170.936 11.4504C170.505 11.0719 170.027 10.788 169.453 10.5988C168.88 10.4095 168.258 10.2676 167.637 10.3149C167.063 10.3149 166.441 10.4095 165.915 10.5988C165.389 10.788 164.959 11.0246 164.529 11.4031C164.146 11.7343 163.859 12.1602 163.62 12.6333C163.381 13.1064 163.285 13.6269 163.285 14.1474C163.285 14.5259 163.333 14.9044 163.477 15.2356C163.572 15.5668 163.764 15.898 163.955 16.2292C164.146 16.5131 164.385 16.797 164.672 17.0335C164.959 17.2701 165.246 17.412 165.581 17.554V17.6486C164.959 17.7432 164.433 17.9798 164.003 18.4056C163.62 18.7368 163.381 19.2573 163.381 19.7304C163.381 20.2982 163.572 20.8187 164.003 21.1499C164.529 21.5284 165.198 21.765 165.867 21.8123C166.059 21.8123 166.298 21.8596 166.585 21.9069L167.589 22.0015L168.688 22.1435C169.071 22.1908 169.406 22.2381 169.788 22.2854C170.314 22.3801 170.792 22.6166 171.175 22.9951C171.557 23.3737 171.796 23.8941 171.749 24.4146C171.749 25.9286 170.505 26.6857 167.971 26.6857C167.015 26.733 166.106 26.5437 165.246 26.1652C164.672 25.8813 164.29 25.3135 164.29 24.6985C164.29 24.2726 164.433 23.8941 164.672 23.5156C164.911 23.1844 165.246 22.9478 165.628 22.9005C165.246 22.5693 164.768 22.4274 164.29 22.4274C164.05 22.4274 163.764 22.4747 163.524 22.6166C163.285 22.7113 163.094 22.9005 162.903 23.0898C162.712 23.279 162.568 23.5156 162.473 23.7995C162.186 24.5092 162.281 25.2662 162.712 25.8813C162.999 26.2598 163.381 26.591 163.811 26.8276C164.337 27.1115 164.959 27.3481 165.581 27.4427C166.298 27.5846 167.063 27.6793 167.828 27.6793C169.693 27.6793 171.079 27.3481 172.035 26.733C172.992 26.1179 173.518 25.077 173.47 23.9887C173.518 23.0898 173.135 22.2381 172.514 21.5757C171.844 20.9133 170.936 20.4875 169.979 20.3455L169.023 20.2036C168.736 20.1563 168.449 20.109 168.162 20.109L167.302 20.0143C167.015 19.967 166.68 19.967 166.346 19.9197C165.963 19.9197 165.581 19.8251 165.198 19.7304C164.959 19.6831 164.815 19.4466 164.815 19.21C164.815 18.8788 165.055 18.6422 165.341 18.5949C165.963 18.453 166.585 18.3583 167.206 18.311C168.497 18.311 169.693 17.8852 170.697 17.0808C171.509 16.3238 171.892 15.2829 171.844 14.1947C171.844 13.485 171.653 12.7752 171.27 12.1602C171.557 11.9236 171.94 11.7816 172.322 11.7816C172.466 11.7816 172.609 11.829 172.753 11.8763L173.087 12.1128C173.183 12.2075 173.326 12.2548 173.47 12.3494C173.613 12.444 173.805 12.444 173.996 12.444C174.235 12.444 174.426 12.3967 174.617 12.2075C174.809 12.0655 174.904 11.829 174.856 11.6397C175 11.2139 174.856 10.8827 174.57 10.6461ZM169.119 16.5131C168.832 17.0335 168.258 17.3647 167.684 17.3647C167.063 17.3647 166.489 17.0335 166.154 16.5131C165.772 15.8034 165.581 14.999 165.581 14.1947C165.533 13.3903 165.724 12.6333 166.154 11.9236C166.489 11.4031 167.063 11.0719 167.637 11.1192C168.258 11.1192 168.784 11.4031 169.071 11.9236C169.453 12.6333 169.645 13.4376 169.597 14.242C169.693 14.999 169.501 15.8034 169.119 16.5131Z" fill="#324D5C"/>
</g>
<defs>
<clipPath id="clip0">
<rect width="175" height="27.6316" fill="white"/>
</clipPath>
</defs>
</svg>
